<?xml version="1.0" encoding="UTF-8"?>
<svg width="64px" height="64px" viewBox="0 0 64 64" version="1.1" xmlns="http://www.w3.org/2000/svg" xmlns:xlink="http://www.w3.org/1999/xlink">
    <!-- Generator: Sketch 48.2 (47327) - http://www.bohemiancoding.com/sketch -->
    <title>social/Twitter/Blue</title>
    <desc>Created with Sketch.</desc>
    <defs></defs>
    <g id="Footer/mobile" stroke="none" stroke-width="1" fill="none" fill-rule="evenodd" transform="translate(-241.000000, -119.000000)">
        <g id="Social" transform="translate(147.000000, 119.000000)">
            <g id="social/Twitter/Blue" transform="translate(94.000000, 0.000000)">
                <g id="twitterBlue">
                    <circle id="Oval" fill="#3FB9BE" fill-rule="nonzero" cx="32" cy="32" r="32"></circle>
                    <path d="M52,22.67 C50.6329174,23.2719259 49.1835936,23.6662768 47.7,23.84 C49.266642,22.9115994 50.4401877,21.4428892 51,19.71 C49.5308935,20.5807348 47.9248065,21.1961197 46.25,21.53 C44.1518659,19.2893029 40.897728,18.557954 38.0426146,19.6854369 C35.1875012,20.8129199 33.3110717,23.5703275 33.31,26.64 C33.309954,27.2125382 33.3770795,27.7831049 33.51,28.34 C27.4952363,28.0404201 21.8903788,25.2016434 18.09,20.53 C16.0930086,23.9517285 17.1104098,28.3370785 20.41,30.53 C19.2128006,30.4880531 18.043248,30.1587949 17,29.57 L17,29.67 C17.0048939,33.2283842 19.5127321,36.2921265 23,37 C22.3479611,37.1757206 21.6752943,37.2631673 21,37.26 C20.5265562,37.2594836 20.0543014,37.2125931 19.59,37.12 C20.5645504,40.1767004 23.3820974,42.2697353 26.59,42.32 C23.4451654,44.7562158 19.4719437,45.8652722 15.52,45.41 C18.9424413,47.6139304 22.9293371,48.7808267 27,48.77 C40.75,48.77 48.27,37.38 48.27,27.5 L48.27,26.5 C49.7337882,25.4583211 50.9974033,24.1608289 52,22.67 Z" id="Shape" fill="#FFFFFF" fill-rule="nonzero"></path>
                </g>
            </g>
        </g>
    </g>
</svg>