<?xml version="1.0" encoding="UTF-8"?>
<svg width="64px" height="64px" viewBox="0 0 64 64" version="1.1" xmlns="http://www.w3.org/2000/svg" xmlns:xlink="http://www.w3.org/1999/xlink">
    <!-- Generator: Sketch 48.2 (47327) - http://www.bohemiancoding.com/sketch -->
    <title>social/instagram/Blue</title>
    <desc>Created with Sketch.</desc>
    <defs>
        <radialGradient cx="126.496932%" cy="104.9524%" fx="126.496932%" fy="104.9524%" r="37.0400096%" gradientTransform="translate(1.264969,1.049524),scale(1.000000,0.999960),translate(-1.264969,-1.049524)" id="radialGradient-1">
            <stop stop-color="#FFFFFF" stop-opacity="0" offset="0%"></stop>
            <stop stop-color="#FFFFFF" offset="100%"></stop>
        </radialGradient>
    </defs>
    <g id="Footer/mobile" stroke="none" stroke-width="1" fill="none" fill-rule="evenodd" transform="translate(-147.000000, -119.000000)">
        <g id="Social" transform="translate(147.000000, 119.000000)">
            <g id="social/instagram/Blue">
                <g id="twitterBlue">
                    <circle id="Oval" fill="#3FB9BE" fill-rule="nonzero" cx="32" cy="32" r="32"></circle>
                    <path d="M25.3344,32 C25.3344,28.31824 28.31824,25.3328 32,25.3328 C35.68176,25.3328 38.6672,28.31824 38.6672,32 C38.6672,35.68176 35.68176,38.6672 32,38.6672 C28.31824,38.6672 25.3344,35.68176 25.3344,32 M21.73024,32 C21.73024,37.672 26.328,42.26976 32,42.26976 C37.672,42.26976 42.26976,37.672 42.26976,32 C42.26976,26.328 37.672,21.73024 32,21.73024 C26.328,21.73024 21.73024,26.328 21.73024,32 M40.27632,21.32304 C40.2757899,22.6485232 41.3498766,23.7234695 42.6753599,23.7239996 C44.0008431,23.7245298 45.0757894,22.6504431 45.0763196,21.3249599 C45.0768498,19.9994766 44.0027632,18.9245303 42.67728,18.924 L42.67632,18.924 C41.3514672,18.9246175 40.2774675,19.9981876 40.27632,21.32304 M23.92,48.27952 C21.97008,48.19072 20.91024,47.86592 20.20592,47.59152 C19.27216,47.228 18.60592,46.79504 17.90544,46.09552 C17.20496,45.396 16.77136,44.7304 16.40944,43.79664 C16.13488,43.09264 15.81008,42.03248 15.72144,40.08256 C15.62448,37.9744 15.60512,37.34112 15.60512,32.00016 C15.60512,26.6592 15.62608,26.02768 15.72144,23.91776 C15.81024,21.96784 16.13744,20.90976 16.40944,20.20368 C16.77296,19.26992 17.20592,18.60368 17.90544,17.9032 C18.60496,17.20272 19.27056,16.76912 20.20592,16.4072 C20.90992,16.13264 21.97008,15.80784 23.92,15.7192 C26.02816,15.62224 26.66144,15.60288 32,15.60288 C37.33856,15.60288 37.97248,15.62384 40.0824,15.7192 C42.03232,15.808 43.0904,16.1352 43.79648,16.4072 C44.73024,16.76912 45.39648,17.20368 46.09696,17.9032 C46.79744,18.60272 47.22944,19.26992 47.59296,20.20368 C47.86752,20.90768 48.19232,21.96784 48.28096,23.91776 C48.37792,26.02768 48.39728,26.6592 48.39728,32.00016 C48.39728,37.34112 48.37792,37.97264 48.28096,40.08256 C48.19216,42.03248 47.86576,43.09232 47.59296,43.79664 C47.22944,44.7304 46.79648,45.39664 46.09696,46.09552 C45.39744,46.7944 44.73024,47.228 43.79648,47.59152 C43.09248,47.86608 42.03232,48.19088 40.0824,48.27952 C37.97424,48.37648 37.34096,48.39584 32,48.39584 C26.65904,48.39584 26.02752,48.37648 23.92,48.27952 M23.7544,12.12112 C21.62528,12.21808 20.1704,12.55568 18.89984,13.05008 C17.584,13.56064 16.47008,14.2456 15.35696,15.35696 C14.24384,16.46832 13.56064,17.584 13.05008,18.89984 C12.55568,20.1712 12.21808,21.62528 12.12112,23.7544 C12.02256,25.88688 12,26.56864 12,32 C12,37.43136 12.02256,38.11312 12.12112,40.2456 C12.21808,42.37488 12.55568,43.8288 13.05008,45.10016 C13.56064,46.4152 14.244,47.53216 15.35696,48.64304 C16.46992,49.75392 17.584,50.43792 18.89984,50.94992 C20.1728,51.44432 21.62528,51.78192 23.7544,51.87888 C25.888,51.97584 26.56864,52 32,52 C37.43136,52 38.11312,51.97744 40.2456,51.87888 C42.37488,51.78192 43.8288,51.44432 45.10016,50.94992 C46.4152,50.43792 47.52992,49.7544 48.64304,48.64304 C49.75616,47.53168 50.43792,46.4152 50.94992,45.10016 C51.44432,43.8288 51.78352,42.37472 51.87888,40.2456 C51.97584,38.11152 51.9984,37.43136 51.9984,32 C51.9984,26.56864 51.97584,25.88688 51.87888,23.7544 C51.78192,21.62512 51.44432,20.1704 50.94992,18.89984 C50.43792,17.5848 49.7544,16.47008 48.64304,15.35696 C47.53168,14.24384 46.4152,13.56064 45.10176,13.05008 C43.8288,12.55568 42.37472,12.21648 40.2472,12.12112 C38.11472,12.02416 37.43296,12 32.0016,12 C26.57024,12 25.888,12.02256 23.7544,12.12112" id="Shape" fill="url(#radialGradient-1)" fill-rule="nonzero"></path>
                </g>
            </g>
        </g>
    </g>
</svg>