<?xml version="1.0" encoding="UTF-8"?>
<svg width="64px" height="64px" viewBox="0 0 64 64" version="1.1" xmlns="http://www.w3.org/2000/svg" xmlns:xlink="http://www.w3.org/1999/xlink">
    <!-- Generator: Sketch 48.2 (47327) - http://www.bohemiancoding.com/sketch -->
    <title>social/linkedin/Blue</title>
    <desc>Created with Sketch.</desc>
    <defs></defs>
    <g id="Footer/mobile" stroke="none" stroke-width="1" fill="none" fill-rule="evenodd" transform="translate(-429.000000, -119.000000)">
        <g id="Social" transform="translate(147.000000, 119.000000)">
            <g id="social/linkedin/Blue" transform="translate(282.000000, 0.000000)">
                <g id="twitterBlue" stroke-width="1" fill="#3FB9BE">
                    <circle id="Oval" fill-rule="nonzero" cx="32" cy="32" r="32"></circle>
                </g>
                <rect id="Rectangle" fill="#FFFFFF" x="12" y="12" width="40" height="40" rx="8"></rect>
                <path d="M49.1994778,48.1981999 L42.3772327,48.1981999 L42.3772327,37.5220701 C42.3772327,34.976666 42.333787,31.7016306 38.8325787,31.7016306 C35.2815356,31.7016306 34.7397428,34.4757632 34.7397428,37.3406206 L34.7397428,48.1981999 L27.9251646,48.1981999 L27.9251646,26.2453679 L34.4650129,26.2453679 L34.4650129,29.2469513 L34.5595711,29.2469513 C35.4693741,27.5206256 37.6953249,25.7010195 41.0138059,25.7010195 C47.9229423,25.7010195 49.1994778,30.2462013 49.1994778,36.1586433 L49.1994778,48.1981999 Z M20.2327287,23.2463402 C18.0412789,23.2463402 16.2740632,21.4740132 16.2740632,19.2889525 C16.2740632,17.1051696 18.0412789,15.3328426 20.2327287,15.3328426 C22.4152338,15.3328426 24.186283,17.1051696 24.186283,19.2889525 C24.186283,21.4740132 22.4152338,23.2463402 20.2327287,23.2463402 Z M16.815856,48.1981999 L23.6457679,48.1981999 L23.6457679,26.2453679 L16.815856,26.2453679 L16.815856,48.1981999 Z M52.5971833,9 L13.3925942,9 C11.5205978,9 10,10.484819 10,12.3172033 L10,51.6815189 C10,53.5139032 11.5205978,55.0012778 13.3925942,55.0012778 L52.5971833,55.0012778 C54.4730131,55.0012778 56,53.5139032 56,51.6815189 L56,12.3172033 C56,10.484819 54.4730131,9 52.5971833,9 Z" id="Fill-4" fill="#3FB9BE"></path>
            </g>
        </g>
    </g>
</svg>