<?xml version="1.0" encoding="utf-8"?>
<!-- Generator: Adobe Illustrator 21.0.0, SVG Export Plug-In . SVG Version: 6.00 Build 0)  -->
<svg version="1.1" xmlns="http://www.w3.org/2000/svg" xmlns:xlink="http://www.w3.org/1999/xlink" x="0px" y="0px"
	 viewBox="0 0 64.5 58.8" style="enable-background:new 0 0 64.5 58.8;" xml:space="preserve">
<style type="text/css">
	.st0{fill:none;stroke:#182121;stroke-width:1.5;stroke-linecap:round;stroke-linejoin:round;stroke-miterlimit:10;}
	.st1{fill:#3FB9BE;}
	.st2{fill:#FFFFFF;}
	.st3{fill:url(#);}
	.st4{fill:#182121;}
	.st5{fill:none;stroke:#182121;stroke-width:3;stroke-linecap:round;stroke-linejoin:round;stroke-miterlimit:10;}
	.st6{fill:none;stroke:#3FB9BE;stroke-width:1.5;stroke-linecap:round;stroke-linejoin:round;stroke-miterlimit:10;}
	.st7{fill:none;stroke:#182121;stroke-width:1.5;stroke-linecap:round;stroke-miterlimit:10;}
	.st8{fill:#3FB9BE;stroke:#182121;stroke-width:1.5;stroke-linecap:round;stroke-linejoin:round;stroke-miterlimit:10;}
	.st9{fill:#231F20;}
	.st10{fill:url(#);stroke:#182121;stroke-width:1.5;stroke-linecap:round;stroke-linejoin:round;stroke-miterlimit:10;}
	.st11{clip-path:url(#SVGID_2_);fill:#FFFFFF;}
	.st12{clip-path:url(#SVGID_2_);fill:#3FB9BE;}
	.st13{clip-path:url(#SVGID_2_);fill:url(#);}
	.st14{clip-path:url(#SVGID_2_);}
	
		.st15{clip-path:url(#SVGID_2_);fill:none;stroke:#182121;stroke-width:1.5;stroke-linecap:round;stroke-linejoin:round;stroke-miterlimit:10;}
	.st16{clip-path:url(#SVGID_2_);fill:#182121;}
	.st17{clip-path:url(#SVGID_3_);}
	.st18{fill:#182121;stroke:#182121;stroke-linecap:round;stroke-linejoin:round;stroke-miterlimit:10;}
	.st19{fill:none;stroke:#3FB9BE;stroke-width:1.5;stroke-linecap:round;stroke-miterlimit:10;}
	.st20{clip-path:url(#SVGID_4_);}
	.st21{fill:none;stroke:#182121;stroke-width:1.5;stroke-miterlimit:10;}
	.st22{fill:#3FB9BE;stroke:#182121;stroke-width:1.5;stroke-miterlimit:10;}
	.st23{clip-path:url(#SVGID_5_);}
	.st24{clip-path:url(#SVGID_6_);}
	.st25{clip-path:url(#SVGID_7_);}
	.st26{clip-path:url(#SVGID_8_);}
	.st27{clip-path:url(#SVGID_9_);}
	.st28{clip-path:url(#SVGID_10_);}
	.st29{fill:#182121;stroke:#182121;stroke-width:1.5;stroke-linecap:round;stroke-linejoin:round;stroke-miterlimit:10;}
	.st30{clip-path:url(#SVGID_11_);}
	.st31{clip-path:url(#SVGID_12_);}
	.st32{clip-path:url(#SVGID_13_);}
	.st33{clip-path:url(#SVGID_14_);}
	.st34{clip-path:url(#SVGID_15_);}
	.st35{clip-path:url(#SVGID_16_);fill:url(#);}
	.st36{fill:#3FB9BE;stroke:#3FB9BE;stroke-width:1.5;stroke-linecap:round;stroke-linejoin:round;stroke-miterlimit:10;}
	.st37{fill:#FFFFFF;stroke:#182121;stroke-width:1.5;stroke-linecap:round;stroke-linejoin:round;stroke-miterlimit:10;}
	.st38{clip-path:url(#SVGID_17_);}
	.st39{clip-path:url(#SVGID_18_);}
	.st40{fill:none;stroke:#182121;stroke-linecap:round;stroke-linejoin:round;stroke-miterlimit:10;}
	.st41{clip-path:url(#SVGID_20_);}
	.st42{clip-path:url(#SVGID_21_);}
	.st43{clip-path:url(#SVGID_23_);}
	.st44{clip-path:url(#SVGID_24_);}
	.st45{clip-path:url(#SVGID_25_);}
	.st46{clip-path:url(#SVGID_26_);}
	.st47{clip-path:url(#SVGID_27_);}
	.st48{clip-path:url(#SVGID_28_);}
	.st49{clip-path:url(#SVGID_29_);}
	.st50{clip-path:url(#SVGID_31_);}
	.st51{fill:#231F20;stroke:#182121;stroke-width:1.5;stroke-linecap:round;stroke-linejoin:round;stroke-miterlimit:10;}
	.st52{clip-path:url(#SVGID_32_);}
	.st53{clip-path:url(#SVGID_33_);}
	.st54{fill:url(#);stroke:#182121;stroke-width:1.5;stroke-linecap:round;stroke-miterlimit:10;}
	.st55{fill:#3FB9BE;stroke:#182121;stroke-width:1.5;stroke-linecap:round;stroke-miterlimit:10;}
	.st56{fill:#FFFFFF;stroke:#182121;stroke-width:1.5;stroke-miterlimit:10;}
</style>
<g id="background">
</g>
<g id="Keep_Eye_Out">
</g>
<g id="Keep_Privacy">
</g>
<g id="What_you_Get">
</g>
<g id="_x37_5_years">
</g>
<g id="About_Page">
	<g>
		<circle class="st1" cx="35" cy="29.2" r="27.7"/>
		<g>
			<defs>
				<circle id="SVGID_39_" cx="35" cy="29.2" r="27.7"/>
			</defs>
			<clipPath id="SVGID_2_">
				<use xlink:href="#SVGID_39_"  style="overflow:visible;"/>
			</clipPath>
			<g class="st14">
				<polygon class="st2" points="61.1,6.8 33.7,22.6 34.8,16.9 62.2,1 				"/>
				<polygon class="st2" points="68.6,34.7 33,54.9 34.1,49.1 69.7,29 				"/>
				<polygon class="st2" points="66.7,17.3 39.3,33.1 41.4,22.3 68.7,6.5 				"/>
			</g>
		</g>
		<path class="st0" d="M62.7,29.2c0,15.3-12.4,27.7-27.7,27.7c-24.3,0-31.5-12.4-31.5-27.7S11.2,1.6,35,1.6
			C50.3,1.6,62.7,14,62.7,29.2z"/>
		<circle class="st2" cx="29.4" cy="29.2" r="27.7"/>
		<g>
			<g>
				<path class="st1" d="M32,34.2l-1,1.1c2.1-0.4,4.2-0.6,6.3-0.6c0.2-0.3,0.6-0.6,0.9-0.8c-0.3,0-0.6,0-0.9,0
					C35.6,33.8,33.8,33.9,32,34.2z"/>
				<path class="st1" d="M29.4,1.2C13.9,1.2,1.3,13.7,1.3,29.2c0,15.5,12.6,28.1,28.1,28.1s28.1-12.6,28.1-28.1
					C57.5,13.7,44.9,1.2,29.4,1.2z M37.7,6.1c1.8,0.6,3.5,1.5,5.1,2.5c0,0-0.1,0-0.1,0c-1.6,1-2.4,3.2-2.7,4.4
					c-1.5-1.8-3-3.3-4.4-4.7c0.1-0.3,0.3-0.8,0.7-1.2C36.7,6.6,37.1,6.3,37.7,6.1z M36.5,5.7c-0.8,0.5-1.3,1.3-1.6,2
					c-1.2-1.1-2.4-2.1-3.5-2.9C33.2,4.9,34.9,5.2,36.5,5.7z M7.6,40.7c0.2,0,0.4,0,0.6,0c0.6,0,1.2-0.1,1.7-0.2
					c-0.6,0.6-1.1,1.1-1.5,1.5C8.2,41.6,7.9,41.2,7.6,40.7z M29.4,53.8c-1,0-2-0.1-2.9-0.2C28.1,51.8,30,51,30,51
					c5.7-2.6,10.3-1.9,12.7-1.1C38.8,52.5,34.2,53.8,29.4,53.8z M52.2,38.4c-2.4-1.4-4.8-2.5-7.2-3.3c0.1,0.3,0.2,0.6,0.3,1
					c2.2,0.8,4.4,1.8,6.6,3.1c-0.5,1.1-1,2.1-1.6,3.1c-1.7-1-3.3-1.7-4.9-2.3V41c1.5,0.5,3,1.2,4.5,2.1c-0.7,1.1-1.5,2.1-2.4,3
					c-0.7-0.4-1.4-0.7-2.1-1c-0.1,0.3-0.2,0.6-0.3,0.8c0.6,0.3,1.2,0.5,1.8,0.8c-0.9,0.9-2,1.8-3,2.6c-2.4-1-7.4-2.1-14,0.9
					c-0.1,0-2.3,1.1-4.2,3.3c-1.8-0.3-3.5-0.8-5.2-1.4c0.9-0.9,3.1-3,6.2-4.7h-1.7c-2.8,1.8-4.7,3.6-5.4,4.4
					c-1.3-0.6-2.6-1.3-3.8-2.1c0.5-0.5,1.3-1.3,2.4-2.2h-0.6c-0.2,0-0.4,0-0.6-0.1c-0.8,0.7-1.4,1.3-1.8,1.8c-1-0.7-1.9-1.5-2.8-2.4
					c-0.1-0.1-0.2-0.2-0.3-0.3c0.5-0.5,1.4-1.4,2.6-2.4v-1.1c-1.5,1.2-2.6,2.3-3.2,2.9c-0.8-0.9-1.6-1.9-2.2-2.9
					c1.5-1.6,5.3-5.4,10.7-8.4l1.9-2c-0.1,0-0.1,0.1-0.2,0.1c-4.2,2.1-7.6,4.6-10,6.7c-0.3,0.1-2.1,0.8-4.2,0.5
					c-1.2-2.5-1.9-5.2-2.2-7.9C6.3,33.3,8.3,34,11,34c0.3,0,0.5,0,0.8,0c3.9-0.2,9.1-1.5,11.7-6.9c1-2.1,1.3-4.1,1.4-5.3
					c1.1,1.3,2,2.8,2.8,4.2l0.6-0.7c-0.1-0.3-0.3-0.5-0.4-0.8c-0.6-1.1-1.2-2-1.9-2.8h-2c-0.1,1.1-0.4,3-1.3,5c-2,4-5.6,6.1-11,6.4
					c-3.1,0.2-5.3-0.7-6.6-2.4c-0.1-0.2-0.2-0.4-0.4-0.6c0-0.3,0-0.6,0-0.9c0-3.4,0.7-6.8,2-9.8c-0.6,3.2,1.4,5.9,1.5,6l0.1,0.1
					c0,0,1.1,0.9,2.6,1.5c1.7,0.6,3.4,0.6,4.9-0.1c-0.3-0.2-0.6-0.4-0.8-0.6c-1.2,0.4-2.4,0.4-3.7-0.1c-1.2-0.5-2.1-1.2-2.3-1.3
					c-0.2-0.3-1.9-2.7-1.3-5.4c0.4-1.9,1.8-3.6,4.2-5c4-2.3,7.7-1.9,10.2-1h2.1c-2.7-1.4-7.4-2.8-12.7,0.2c-1,0.6-1.9,1.2-2.6,1.9
					c0.9-1.3,1.9-2.5,3-3.7c1.8-1.8,3.9-3.3,6.1-4.5c2.6,0.1,5.2,0.9,7.8,2.3c1.8,1,3.5,2.2,5.2,3.8h1.3C28.3,9.5,24,7.3,19.7,6.7
					c3-1.3,6.3-2,9.7-2c0.1,0,0.3,0,0.4,0c1.5,1,3.1,2.3,4.8,4c0,0.2,0.1,0.3,0.3,0.4c0,0,0,0,0.1,0c1.3,1.3,2.7,2.8,4.1,4.4h1.6
					c0.3-1,1-3.2,2.4-4.1c0.1-0.1,0.3-0.2,0.4-0.2c1.1,0.8,2.2,1.7,3.2,2.7c0.2,0.2,0.4,0.4,0.5,0.5c-0.2,0.1-0.4,0.3-0.6,0.4
					c-0.7,0.6-1.2,1.5-1.6,2.4c0.1,0.3,0.2,0.7,0.2,1.1v1.5c0.3-1.5,0.8-3.3,2-4.4c0.2-0.2,0.4-0.3,0.6-0.4c1.2,1.4,2.3,2.9,3.1,4.5
					c-1.4,1-2.5,2.6-3.1,4.6c-0.3,0.9-0.4,1.7-0.5,2.4c-0.7-1.4-1.4-2.9-2.3-4.4c0,0,0-0.1,0-0.3c-0.1,0.4-0.3,0.8-0.5,1.1
					c1.1,1.9,2,3.8,2.7,5.5c0,0,0,0,0,0c1,2.3,1.7,4.2,2,5.2c-1.8-0.7-3.6-1.3-5.4-1.8c-0.3-0.6-1.3-2.6-2.8-5.2l-0.6,0.7
					c1.1,1.9,1.9,3.5,2.4,4.3c-1.7-0.3-3.3-0.6-5-0.6c-0.1-0.2-0.2-0.4-0.3-0.6l-1.4,1.4c0.1,0,0.2,0,0.2,0c0,0,0,0,0.1,0
					c5.7,0,11.4,1.6,16.9,4.8C53.1,35.9,52.7,37.2,52.2,38.4z M50.4,32.1c-0.2-0.7-1-3-2.3-6c0-0.7,0.3-5.5,3.3-7.8
					c1.7,3.4,2.6,7.1,2.6,10.9c0,1.5-0.1,3-0.4,4.5C52.5,33.1,51.5,32.6,50.4,32.1z"/>
				<path class="st1" d="M33.3,39h3.5v-0.3C35.6,38.7,34.4,38.8,33.3,39z"/>
				<path class="st1" d="M14.3,18.7C13.7,19,13,19.5,12.4,20c-0.2,0.1-0.2,0.4-0.1,0.6c0.1,0.2,0.4,0.2,0.6,0.1
					c0.5-0.4,0.9-0.7,1.4-1V18.7z"/>
			</g>
			<path class="st4" d="M17.3,45.2c-0.5,0-0.8-0.2-0.8-0.7V42c0-1.1,0.4-1.5,0.9-2l19.5-20.3H20.6v4.6c0,0.5-0.2,0.7-0.7,0.7h-2.6
				c-0.5,0-0.8-0.2-0.8-0.7v-7.9c0-0.5,0.3-0.7,0.8-0.7h25.1c0.5,0,0.8,0.2,0.8,0.7v2.1c0,0.8-0.4,1.4-1,1.9L22.4,41.1H39v-4.7
				c0-0.5,0.3-0.7,0.8-0.7h2.6c0.5,0,0.8,0.2,0.8,0.7v8.1c0,0.5-0.3,0.7-0.8,0.7H17.3z"/>
		</g>
		<circle class="st0" cx="29.4" cy="29.2" r="27.7"/>
	</g>
</g>
<g id="You_Did_It">
</g>
<g id="GIve__x24_25">
</g>
<g id="Thanks_for_Message">
</g>
<g id="Layer_10">
</g>
</svg>
