<?xml version="1.0" encoding="utf-8"?>
<!-- Generator: Adobe Illustrator 21.0.0, SVG Export Plug-In . SVG Version: 6.00 Build 0)  -->
<svg version="1.1" xmlns="http://www.w3.org/2000/svg" xmlns:xlink="http://www.w3.org/1999/xlink" x="0px" y="0px"
	 viewBox="0 0 63.8 66.6" style="enable-background:new 0 0 63.8 66.6;" xml:space="preserve">
<style type="text/css">
	.st0{fill:none;stroke:#182121;stroke-width:1.5;stroke-linecap:round;stroke-linejoin:round;stroke-miterlimit:10;}
	.st1{fill:#3FB9BE;}
	.st2{fill:#FFFFFF;}
	.st3{fill:url(#);}
	.st4{fill:#182121;}
	.st5{fill:none;stroke:#182121;stroke-width:3;stroke-linecap:round;stroke-linejoin:round;stroke-miterlimit:10;}
	.st6{fill:none;stroke:#3FB9BE;stroke-width:1.5;stroke-linecap:round;stroke-linejoin:round;stroke-miterlimit:10;}
	.st7{fill:none;stroke:#182121;stroke-width:1.5;stroke-linecap:round;stroke-miterlimit:10;}
	.st8{fill:#3FB9BE;stroke:#182121;stroke-width:1.5;stroke-linecap:round;stroke-linejoin:round;stroke-miterlimit:10;}
	.st9{fill:#231F20;}
	.st10{fill:url(#);stroke:#182121;stroke-width:1.5;stroke-linecap:round;stroke-linejoin:round;stroke-miterlimit:10;}
	.st11{clip-path:url(#SVGID_2_);fill:#FFFFFF;}
	.st12{clip-path:url(#SVGID_2_);fill:#3FB9BE;}
	.st13{clip-path:url(#SVGID_2_);fill:url(#);}
	.st14{clip-path:url(#SVGID_2_);}
	
		.st15{clip-path:url(#SVGID_2_);fill:none;stroke:#182121;stroke-width:1.5;stroke-linecap:round;stroke-linejoin:round;stroke-miterlimit:10;}
	.st16{clip-path:url(#SVGID_2_);fill:#182121;}
	.st17{clip-path:url(#SVGID_3_);}
	.st18{fill:#182121;stroke:#182121;stroke-linecap:round;stroke-linejoin:round;stroke-miterlimit:10;}
	.st19{fill:none;stroke:#3FB9BE;stroke-width:1.5;stroke-linecap:round;stroke-miterlimit:10;}
	.st20{clip-path:url(#SVGID_4_);}
	.st21{fill:none;stroke:#182121;stroke-width:1.5;stroke-miterlimit:10;}
	.st22{fill:#3FB9BE;stroke:#182121;stroke-width:1.5;stroke-miterlimit:10;}
	.st23{clip-path:url(#SVGID_5_);}
	.st24{clip-path:url(#SVGID_6_);}
	.st25{clip-path:url(#SVGID_7_);}
	.st26{clip-path:url(#SVGID_8_);}
	.st27{clip-path:url(#SVGID_9_);}
	.st28{clip-path:url(#SVGID_10_);}
	.st29{fill:#182121;stroke:#182121;stroke-width:1.5;stroke-linecap:round;stroke-linejoin:round;stroke-miterlimit:10;}
	.st30{clip-path:url(#SVGID_11_);}
	.st31{clip-path:url(#SVGID_12_);}
	.st32{clip-path:url(#SVGID_13_);}
	.st33{clip-path:url(#SVGID_14_);}
	.st34{clip-path:url(#SVGID_15_);}
	.st35{clip-path:url(#SVGID_16_);fill:url(#);}
	.st36{fill:#3FB9BE;stroke:#3FB9BE;stroke-width:1.5;stroke-linecap:round;stroke-linejoin:round;stroke-miterlimit:10;}
	.st37{fill:#FFFFFF;stroke:#182121;stroke-width:1.5;stroke-linecap:round;stroke-linejoin:round;stroke-miterlimit:10;}
	.st38{clip-path:url(#SVGID_17_);}
	.st39{clip-path:url(#SVGID_18_);}
	.st40{fill:none;stroke:#182121;stroke-linecap:round;stroke-linejoin:round;stroke-miterlimit:10;}
	.st41{clip-path:url(#SVGID_20_);}
	.st42{clip-path:url(#SVGID_21_);}
	.st43{clip-path:url(#SVGID_23_);}
	.st44{clip-path:url(#SVGID_24_);}
	.st45{clip-path:url(#SVGID_25_);}
	.st46{clip-path:url(#SVGID_26_);}
	.st47{clip-path:url(#SVGID_27_);}
	.st48{clip-path:url(#SVGID_28_);}
	.st49{clip-path:url(#SVGID_29_);}
	.st50{clip-path:url(#SVGID_31_);}
	.st51{fill:#231F20;stroke:#182121;stroke-width:1.5;stroke-linecap:round;stroke-linejoin:round;stroke-miterlimit:10;}
	.st52{clip-path:url(#SVGID_32_);}
	.st53{clip-path:url(#SVGID_33_);}
	.st54{fill:url(#);stroke:#182121;stroke-width:1.5;stroke-linecap:round;stroke-miterlimit:10;}
	.st55{fill:#3FB9BE;stroke:#182121;stroke-width:1.5;stroke-linecap:round;stroke-miterlimit:10;}
	.st56{fill:#FFFFFF;stroke:#182121;stroke-width:1.5;stroke-miterlimit:10;}
</style>
<g id="background">
</g>
<g id="Keep_Eye_Out">
</g>
<g id="Keep_Privacy">
</g>
<g id="What_you_Get">
</g>
<g id="_x37_5_years">
</g>
<g id="About_Page">
	<g>
		<path class="st1" d="M13.9,41.2l-11,3.9l2.6-10.9l0,0c-2.4-3.4-3.7-7.5-3.7-11.9c0-11.5,9.3-20.8,20.8-20.8s20.8,9.3,20.8,20.8
			s-9.3,20.8-20.8,20.8C19.5,43.1,16.6,42.4,13.9,41.2L13.9,41.2z"/>
		<g>
			<circle class="st2" cx="13.5" cy="22.8" r="2.6"/>
			<circle class="st2" cx="22.7" cy="22.8" r="2.6"/>
			<circle class="st2" cx="31.8" cy="22.8" r="2.6"/>
		</g>
		<path class="st0" d="M13.9,41.2l-11,3.9l2.6-10.9l0,0c-2.4-3.4-3.7-7.5-3.7-11.9c0-11.5,9.3-20.8,20.8-20.8s20.8,9.3,20.8,20.8
			s-9.3,20.8-20.8,20.8C19.5,43.1,16.6,42.4,13.9,41.2L13.9,41.2z"/>
		<path class="st2" d="M50.4,61l11,3.9L58.7,54l0,0c2.4-3.4,3.7-7.5,3.7-11.9c0-11.5-9.3-20.8-20.8-20.8s-20.8,9.3-20.8,20.8
			S30.1,63,41.6,63C44.8,63,47.7,62.3,50.4,61L50.4,61z"/>
		<path class="st0" d="M50.4,61l11,3.9L58.7,54l0,0c2.4-3.4,3.7-7.5,3.7-11.9c0-11.5-9.3-20.8-20.8-20.8s-20.8,9.3-20.8,20.8
			S30.1,63,41.6,63C44.8,63,47.7,62.3,50.4,61L50.4,61z"/>
		<g>
			<path class="st4" d="M40.2,33.4h2.9c0.4,0,0.8,0.3,0.8,0.8v2c0,0.4-0.3,0.8-0.8,0.8h-2.9c-0.4,0-0.8-0.3-0.8-0.8v-2
				C39.4,33.8,39.8,33.4,40.2,33.4z M40.2,39h2.9c0.4,0,0.8,0.3,0.8,0.8v12.3c0,0.4-0.3,0.8-0.8,0.8h-2.9c-0.4,0-0.8-0.3-0.8-0.8
				V39.7C39.4,39.3,39.8,39,40.2,39z"/>
		</g>
	</g>
</g>
<g id="You_Did_It">
</g>
<g id="GIve__x24_25">
</g>
<g id="Thanks_for_Message">
</g>
<g id="Layer_10">
</g>
</svg>
